<svg width="180" height="180" fill="none" xmlns="http://www.w3.org/2000/svg"><path d="M160.2 74.7c-1.8-8.1-5.4-16.2-9.9-23.4l9-18.9-12.6-12.6-18.9 9c-7.2-4.5-14.4-7.2-22.5-9L99 0H81l-7.2 19.8c-8.1 1.8-15.3 5.4-22.5 9.9l-18.9-9-12.6 11.7 9 18.9c-4.5 7.2-7.2 14.4-9 22.5L0 81v18l19.8 7.2c1.8 8.1 5.4 16.2 9 22.5l-9 18.9 12.6 12.6 18.9-9c7.2 4.5 14.4 8.1 22.5 9.9L81 180h18l7.2-19.8c2.7-.9 6.3-1.8 9-2.7l-14.4-14.4C66.6 149.4 36 124.2 36 90c0-29.7 24.3-54 54-54 33.3 0 58.5 29.7 53.1 61.2l15.3 15.3c.9-2.7 1.8-4.5 1.8-7.2L180 99V81l-19.8-6.3z" fill="#000"/><path d="M160.2 74.7c-1.8-8.1-5.4-16.2-9.9-23.4l9-18.9-12.6-12.6-18.9 9c-7.2-4.5-14.4-7.2-22.5-9L99 0H81l-7.2 19.8c-8.1 1.8-15.3 5.4-22.5 9.9l-18.9-9-12.6 11.7 9 18.9c-4.5 7.2-7.2 14.4-9 22.5L0 81v18l19.8 7.2c1.8 8.1 5.4 16.2 9 22.5l-9 18.9 12.6 12.6 18.9-9c7.2 4.5 14.4 8.1 22.5 9.9L81 180h18l7.2-19.8c2.7-.9 6.3-1.8 9-2.7l-14.4-14.4C66.6 149.4 36 124.2 36 90c0-29.7 24.3-54 54-54 33.3 0 58.5 29.7 53.1 61.2l15.3 15.3c.9-2.7 1.8-4.5 1.8-7.2L180 99V81l-19.8-6.3z" fill="url(#paint0_linear_19_2168)"/><path d="M176.4 156.6l-53.1-53.1C135.9 75.6 109.8 45.9 81 54l16.2 16.2c7.2 7.2 7.2 18.9 0 25.2-6.3 7.2-18.9 7.2-25.2 0L55.8 80.1c-8.1 25.2 18 54 47.7 42.3l53.1 53.1c5.4 5.4 13.5 5.4 18.9 0 5.4-4.5 5.4-13.5.9-18.9z" fill="#000"/><path d="M176.4 156.6l-53.1-53.1C135.9 75.6 109.8 45.9 81 54l16.2 16.2c7.2 7.2 7.2 18.9 0 25.2-6.3 7.2-18.9 7.2-25.2 0L55.8 80.1c-8.1 25.2 18 54 47.7 42.3l53.1 53.1c5.4 5.4 13.5 5.4 18.9 0 5.4-4.5 5.4-13.5.9-18.9z" fill="url(#paint1_linear_19_2168)"/><defs><linearGradient id="paint0_linear_19_2168" x1="102.5" y1="180" x2="79.5" y2="63" gradientUnits="userSpaceOnUse"><stop stop-color="#99958C"/><stop offset="1" stop-color="#C5BFB4"/></linearGradient><linearGradient id="paint1_linear_19_2168" x1="125.694" y1="179.55" x2="109.294" y2="97.137" gradientUnits="userSpaceOnUse"><stop stop-color="#99958C"/><stop offset="1" stop-color="#C5BFB4"/></linearGradient></defs></svg>