<svg width="149" height="88" fill="none" xmlns="http://www.w3.org/2000/svg"><path d="M97.44 16.862l-14.602-4.304L74.23 0l-8.606 12.557-14.602 4.304 9.283 12.066-.419 15.217 14.345-5.1 14.344 5.1-.42-15.218 9.284-12.065zm-51.022 0l-14.602-4.305L23.209 0l-8.606 12.557L0 16.862l9.284 12.066-.42 15.217 14.345-5.1 14.344 5.1-.419-15.218 9.284-12.065zm102.045 0l-14.603-4.304L125.253 0l-8.606 12.558-14.602 4.304 9.283 12.066-.418 15.217 14.344-5.1 14.344 5.1-.42-15.218 9.285-12.065zm-25.512 43.855l-14.602-4.304-8.607-12.558-8.606 12.558-14.602 4.304 9.283 12.066L85.398 88l14.345-5.1 14.344 5.1-.42-15.218 9.284-12.065zm-51.022 0l-14.602-4.305-8.607-12.557-8.606 12.557-14.602 4.305 9.283 12.066L34.376 88l14.344-5.1L63.065 88l-.42-15.218 9.284-12.065z" fill="url(#paint0_linear_27_13)"/><defs><linearGradient id="paint0_linear_27_13" x1="67.135" y1="87.533" x2="99.438" y2="45.814" gradientUnits="userSpaceOnUse"><stop stop-color="#99958C"/><stop offset="1" stop-color="#C5BFB4"/></linearGradient></defs></svg>