<svg width="343" height="192" fill="none" xmlns="http://www.w3.org/2000/svg"><path fill-rule="evenodd" clip-rule="evenodd" d="M18.12 169.968c-1.71-3.506-2.145-7.896-4.265-11.025-1.91-2.713-4.536-4.326-5.703-7.581-2.23-8.725-9.884-16.899-7.795-24.706 1.315-.932 5.323-.072 6.483-.264 5.405-.584 13.003-1.31 14.609-7.437 1.428-5.359-3.012-8.74-2.619-14.454.294-2.281 2.062-3.785 2.518-6.049-.723-10.006.909-10.022 5.238-17.06 2.772-3.644 1.772-7.505 5.306-11.02 13.347-10.884 22.961-6.192 26.129-8.415C72.014 52.41 74.949 39.486 82.05 42.711c5.208 2.002 8.154 10.014 6.951 15.463-.91 4.715-7.182 8.23-9.862 1.939-.593-.251-3.16.319-3.432.886-1.466 1.303-.78 3.687.706 5.87 4.647 6.973 14.521 6.216 20.462 6.149 15.461-.974 11.781 1.378 17.593 2.623 1.398.011 3.964-1.888 5.977-2.483 3.496-.534 7.376-.169 10.318 3.192 3.58.9 7.745-9.456 11.755-9.91 8.513-1.075 6.98 9.898 20.027 3.084 6.551-2.905 6.543-3.29 9.015-6.831 2.374-2.862 6.353-3.668 9.407-5.651 10.938-9.598 8.018-9.468 19.052-5.86 3.352.674 4.251 2.09 4.44 4.712-.258 5.544-.142 9.508 6.332 10.444 3.167-.048 6.028-2.776 10.156-1.701 5.801 1.106 10.803 6.072 16.844 5.74 6.211-3.853 9.544-19.342 16.418-20.783 3.426-.659 6.956.415 10.168-1.847 15.458-12.248 10.725-5.05 18.588-9.95 2.373-1.882 3.272-4.189 4.2-6.768 3.146-13.139 15.567-15.944 24.232-23.102 1.703-1.856 2.681-4.802 4.081-6.587 2.881-4.478 8.516 3.489 9.301 6.078-.532 2.38-2.318 3.401-3.587 4.969-13.739 15.07.086 11.3 4.481 16.144 1.449 2.76 1.734 8.483 2.241 13.733 1.499 10.939-6.225 18.515-2.603 25.112 1.965 3.58 5.451 6.849 7.251 9.302 3.805 5.06 6.807 11.987 8.445 18.52 3.684 17.641 1.681 10.821-1.328 8.885-6.534-5.807-13.113-2.757-17.192-8.532-5.253-7.71-1.587-17.843-2.086-19.836-6.125-14.887-15.361-2.54-14.068 3.06.673 2.303 3.281 6.201 3.465 9.18.178 4.835-6.825 7.217-9.668 9.74-5.029 4.316-16.584 13.644-14.176 19.2 2.46 6.291-.357 9.115-1.494 12.967-1.215 2.545 5.26 3.093 6.18 2.43 2.336-.776 5.027-2.668 7.345-1.914 4.781 1.812 9.573 8.297 10.716 11.384 4.892 15.658 9.221 28.98 3.653 39.7-2.45 3.756-5.423 9.808-8.17 10.538-4.436-.272-10.137-3.734-8.99-7.193.944-4.674 8.085-10.204 4.247-15.543-1.096-1.618-2.723-1.838-4.466-1.527-8.029 2.687-9.199 2.12-15.164.37-14.344-2.15-9.245-17.975-27.593-9.734-3.535 2.27.524 5.598-.003 8.29-.49 2.121-1.69 3.242-2.167 5.505-1.009 3.812-.708 6.141-4.358 8.052-3.56 1.744-6.431 1.409-9.528 2.373-13.486 6.792-10.997 5.932-23.614.227-7.679-3.056-10.212 3.686-12.788 1.891-2.949-2.273-5.113-4.273-8.502-5.039-7.219-1.641-3.837 9.098-8.276 8.984-4.609-.001-8.905-3.111-12.186-2.459-19.106 5.694-9.425.974-20.744.477-1.171-.099-1.695-.284-2.644-1.101-5.334-5.616-5.852-4.09-10.754-5.71-6.532-3.023-3.84-13.234-7.935-17.761-2.308-2.691-6.408-3.377-9.429-5.307-1.848-.922-2.495-3.181-3.444-4.861-3.319-3.958-11.136-4.288-15.934-5.187-9.97-1.781-12.452-3.695-17.108 5.651-.32 1.242-.687 3.717-1.122 3.772-1.195.231-6.423-2.671-7.371-2.816-17.255-4.844-9.893-9.772-18.02-15.871-6.853-3.936-17.372-.033-20.07 5.741-1.472 2.527-.062 7.006-1.471 10.076-2.665 3.795-6.71-.577-9.67 4.155-2.578 3.468-4.951 9.891-6.96 12.513z" fill="#000"/><path fill-rule="evenodd" clip-rule="evenodd" d="M18.12 169.968c-1.71-3.506-2.145-7.896-4.265-11.025-1.91-2.713-4.536-4.326-5.703-7.581-2.23-8.725-9.884-16.899-7.795-24.706 1.315-.932 5.323-.072 6.483-.264 5.405-.584 13.003-1.31 14.609-7.437 1.428-5.359-3.012-8.74-2.619-14.454.294-2.281 2.062-3.785 2.518-6.049-.723-10.006.909-10.022 5.238-17.06 2.772-3.644 1.772-7.505 5.306-11.02 13.347-10.884 22.961-6.192 26.129-8.415C72.014 52.41 74.949 39.486 82.05 42.711c5.208 2.002 8.154 10.014 6.951 15.463-.91 4.715-7.182 8.23-9.862 1.939-.593-.251-3.16.319-3.432.886-1.466 1.303-.78 3.687.706 5.87 4.647 6.973 14.521 6.216 20.462 6.149 15.461-.974 11.781 1.378 17.593 2.623 1.398.011 3.964-1.888 5.977-2.483 3.496-.534 7.376-.169 10.318 3.192 3.58.9 7.745-9.456 11.755-9.91 8.513-1.075 6.98 9.898 20.027 3.084 6.551-2.905 6.543-3.29 9.015-6.831 2.374-2.862 6.353-3.668 9.407-5.651 10.938-9.598 8.018-9.468 19.052-5.86 3.352.674 4.251 2.09 4.44 4.712-.258 5.544-.142 9.508 6.332 10.444 3.167-.048 6.028-2.776 10.156-1.701 5.801 1.106 10.803 6.072 16.844 5.74 6.211-3.853 9.544-19.342 16.418-20.783 3.426-.659 6.956.415 10.168-1.847 15.458-12.248 10.725-5.05 18.588-9.95 2.373-1.882 3.272-4.189 4.2-6.768 3.146-13.139 15.567-15.944 24.232-23.102 1.703-1.856 2.681-4.802 4.081-6.587 2.881-4.478 8.516 3.489 9.301 6.078-.532 2.38-2.318 3.401-3.587 4.969-13.739 15.07.086 11.3 4.481 16.144 1.449 2.76 1.734 8.483 2.241 13.733 1.499 10.939-6.225 18.515-2.603 25.112 1.965 3.58 5.451 6.849 7.251 9.302 3.805 5.06 6.807 11.987 8.445 18.52 3.684 17.641 1.681 10.821-1.328 8.885-6.534-5.807-13.113-2.757-17.192-8.532-5.253-7.71-1.587-17.843-2.086-19.836-6.125-14.887-15.361-2.54-14.068 3.06.673 2.303 3.281 6.201 3.465 9.18.178 4.835-6.825 7.217-9.668 9.74-5.029 4.316-16.584 13.644-14.176 19.2 2.46 6.291-.357 9.115-1.494 12.967-1.215 2.545 5.26 3.093 6.18 2.43 2.336-.776 5.027-2.668 7.345-1.914 4.781 1.812 9.573 8.297 10.716 11.384 4.892 15.658 9.221 28.98 3.653 39.7-2.45 3.756-5.423 9.808-8.17 10.538-4.436-.272-10.137-3.734-8.99-7.193.944-4.674 8.085-10.204 4.247-15.543-1.096-1.618-2.723-1.838-4.466-1.527-8.029 2.687-9.199 2.12-15.164.37-14.344-2.15-9.245-17.975-27.593-9.734-3.535 2.27.524 5.598-.003 8.29-.49 2.121-1.69 3.242-2.167 5.505-1.009 3.812-.708 6.141-4.358 8.052-3.56 1.744-6.431 1.409-9.528 2.373-13.486 6.792-10.997 5.932-23.614.227-7.679-3.056-10.212 3.686-12.788 1.891-2.949-2.273-5.113-4.273-8.502-5.039-7.219-1.641-3.837 9.098-8.276 8.984-4.609-.001-8.905-3.111-12.186-2.459-19.106 5.694-9.425.974-20.744.477-1.171-.099-1.695-.284-2.644-1.101-5.334-5.616-5.852-4.09-10.754-5.71-6.532-3.023-3.84-13.234-7.935-17.761-2.308-2.691-6.408-3.377-9.429-5.307-1.848-.922-2.495-3.181-3.444-4.861-3.319-3.958-11.136-4.288-15.934-5.187-9.97-1.781-12.452-3.695-17.108 5.651-.32 1.242-.687 3.717-1.122 3.772-1.195.231-6.423-2.671-7.371-2.816-17.255-4.844-9.893-9.772-18.02-15.871-6.853-3.936-17.372-.033-20.07 5.741-1.472 2.527-.062 7.006-1.471 10.076-2.665 3.795-6.71-.577-9.67 4.155-2.578 3.468-4.951 9.891-6.96 12.513z" fill="url(#paint0_linear_19_2172)"/><defs><linearGradient id="paint0_linear_19_2172" x1="155.106" y1="190.981" x2="224.476" y2="96.112" gradientUnits="userSpaceOnUse"><stop stop-color="#99958C"/><stop offset="1" stop-color="#C5BFB4"/></linearGradient></defs></svg>