<svg width="202" height="64" fill="none" xmlns="http://www.w3.org/2000/svg"><g clip-path="url(#clip0_20_153)"><path fill-rule="evenodd" clip-rule="evenodd" d="M1.89 1.882h198.22V54.32h-50.5v1.883H202V0H0v56.202h52.39v-1.883H1.89V1.882z" fill="#9C988F"/><path fill-rule="evenodd" clip-rule="evenodd" d="M12.962 18.555h27.68v-5.647h-27.68v5.647zm54.011 1.613l-12.152 12.88v-20.14h-6.103v30.386h4.941L67 29.042v-8.874h-.027zm49.15 23.126l15.204-30.386h6.751l15.312 30.386h-13.232v-5.647h3.915l-9.316-18.69-9.452 18.69h4.05v5.647h-13.232zm-43.533 0V31.731h.054V12.907h6.076v30.387h-6.13zM23.791 24.202v19.092h6.104V24.202H23.79zM97.49 43.294V23.529h6.103v19.765H97.49zm16.878-30.386v5.647h-27.68v-5.647h27.68zm45.721 0v30.386h6.103V30.871h.027v-5.594h-.027v-12.37h-6.103zm11.801 17.963h11.045v12.423h6.103V12.908h-6.103v12.37H171.89v5.593z" fill="url(#paint0_linear_20_153)"/><path d="M66.622 58.138h4.888c-.378-1.371-1.62-2.259-3.24-2.259-1.432 0-2.512.619-3.025 1.667h-2.08c.595-2.15 2.566-3.495 5.104-3.495 3.025 0 5.267 2.124 5.267 5.001 0 2.824-2.242 4.948-5.267 4.948-2.511 0-4.482-1.371-5.104-3.496h2.08c.513 1.05 1.593 1.668 3.024 1.668 1.62 0 2.863-.888 3.241-2.286h-4.888v-1.748zm10.775 1.748v3.899h-1.944v-9.546h1.944v3.899h1.108l3.754-3.9h2.619l-4.59 4.76 4.941 4.76h-2.7l-4.105-3.9h-1.027v.028zm10.236-.834c0 1.829 1.404 3.146 3.375 3.146 1.404 0 2.485-.645 3.025-1.667h2.052c-.594 2.151-2.592 3.496-5.05 3.496-3.024 0-5.293-2.124-5.293-4.948 0-2.877 2.269-5.002 5.293-5.002 2.485 0 4.456 1.372 5.05 3.496h-2.052c-.513-1.048-1.62-1.667-3.025-1.667-1.998-.027-3.375 1.264-3.375 3.146zm10.342-4.786h9.425v9.546h-1.944V56.04h-5.563v7.772h-1.945v-9.546h.027zm11.748 9.519v-9.546h7.966v1.748h-6.049v2.124h5.833v1.748h-5.833v2.124h6.049v1.775h-7.966v.027zm10.289 0v-9.546h4.942c2.079 0 3.807 1.344 3.807 3.388 0 1.91-1.836 3.388-3.807 3.388h-2.998v2.77h-1.944zm6.805-6.158c0-.941-.81-1.613-1.863-1.613h-2.998v3.226h2.998c1.053 0 1.863-.699 1.863-1.613zm6.67 6.158v-7.771h-3.429v-1.748h8.749v1.748h-3.402v7.771h-1.918z" fill="#9C988F"/></g><defs><linearGradient id="paint0_linear_20_153" x1="101" y1="12.908" x2="101" y2="43.294" gradientUnits="userSpaceOnUse"><stop stop-color="#99958C"/><stop offset="1" stop-color="#C5BFB4"/></linearGradient><clipPath id="clip0_20_153"><path fill="#fff" d="M0 0h202v64H0z"/></clipPath></defs></svg>