<?xml version="1.0" encoding="utf-8"?><svg viewBox="0 0 41 33" xmlns="http://www.w3.org/2000/svg" xmlns:xlink="http://www.w3.org/1999/xlink"><style>:root>svg{display:none}:root>svg:target{display:block}</style><svg fill="none" viewBox="0 0 41 12" id="icon-arrow-next" xmlns="http://www.w3.org/2000/svg"><path d="M41 6L31 .226v11.547L41 6zM0 7h32V5H0v2z" fill="currentColor"/></svg><svg fill="none" viewBox="0 0 41 12" id="icon-arrow-prev" xmlns="http://www.w3.org/2000/svg"><path d="M0 6l10 5.774V.226L0 6zm41-1H9v2h32V5z" fill="currentColor"/></svg><svg fill="none" viewBox="0 0 20 20" id="icon-check" xmlns="http://www.w3.org/2000/svg"><path d="M16 6l-8.25 8L4 9.91" stroke="#C5BFB4" stroke-width="2" stroke-linecap="round" stroke-linejoin="round"/></svg><svg fill="none" viewBox="0 0 36 26" id="icon-email" xmlns="http://www.w3.org/2000/svg"><path d="M35.202 5.151v19.413c0 .71-.566 1.291-1.257 1.291H1.257c-.691 0-1.257-.58-1.257-1.29V5.15l15.451 10.985a3.708 3.708 0 002.15.684c.767 0 1.509-.233 2.15-.684L35.202 5.15zM35.145.946a1.29 1.29 0 00-.455-.655 1.235 1.235 0 00-.745-.251H1.257C.99.04.73.128.513.292a1.292 1.292 0 00-.455.655c-.08.262-.077.544.01.804s.253.485.473.642L16.884 14.01a1.242 1.242 0 001.432-.001L34.66 2.392c.22-.157.386-.381.474-.641.087-.26.091-.542.011-.805z" fill="#000"/><path d="M35.202 5.151v19.413c0 .71-.566 1.291-1.257 1.291H1.257c-.691 0-1.257-.58-1.257-1.29V5.15l15.451 10.985a3.708 3.708 0 002.15.684c.767 0 1.509-.233 2.15-.684L35.202 5.15zM35.145.946a1.29 1.29 0 00-.455-.655 1.235 1.235 0 00-.745-.251H1.257C.99.04.73.128.513.292a1.292 1.292 0 00-.455.655c-.08.262-.077.544.01.804s.253.485.473.642L16.884 14.01a1.242 1.242 0 001.432-.001L34.66 2.392c.22-.157.386-.381.474-.641.087-.26.091-.542.011-.805z" fill="currentColor"/></svg><svg fill="none" viewBox="0 0 32 33" id="icon-phone" xmlns="http://www.w3.org/2000/svg"><path fill-rule="evenodd" clip-rule="evenodd" d="M31.103 28.388c-.21.21-.465.478-.734.761-.67.713-1.51 1.598-2.035 1.958-2.765 1.89-6.465.985-9.082-.105-3.452-1.439-7.21-4.09-10.585-7.465-3.378-3.375-6.03-7.135-7.467-10.585-1.09-2.618-1.996-6.318-.106-9.084.36-.526 1.247-1.363 1.958-2.036.285-.268.551-.521.761-.731a1.993 1.993 0 012.812 0l5.088 5.087a1.993 1.993 0 010 2.81l-1.386 1.384a3.028 3.028 0 00-.535 3.58 20.328 20.328 0 008.449 8.447 3.026 3.026 0 003.579-.536l1.382-1.383a1.993 1.993 0 012.812 0l5.089 5.087a1.993 1.993 0 010 2.811z" fill="#000"/><path fill-rule="evenodd" clip-rule="evenodd" d="M31.103 28.388c-.21.21-.465.478-.734.761-.67.713-1.51 1.598-2.035 1.958-2.765 1.89-6.465.985-9.082-.105-3.452-1.439-7.21-4.09-10.585-7.465-3.378-3.375-6.03-7.135-7.467-10.585-1.09-2.618-1.996-6.318-.106-9.084.36-.526 1.247-1.363 1.958-2.036.285-.268.551-.521.761-.731a1.993 1.993 0 012.812 0l5.088 5.087a1.993 1.993 0 010 2.81l-1.386 1.384a3.028 3.028 0 00-.535 3.58 20.328 20.328 0 008.449 8.447 3.026 3.026 0 003.579-.536l1.382-1.383a1.993 1.993 0 012.812 0l5.089 5.087a1.993 1.993 0 010 2.811z" fill="currentColor"/></svg><svg fill="none" viewBox="0 0 26 33" id="icon-pin" xmlns="http://www.w3.org/2000/svg"><path d="M12.637.52a12.75 12.75 0 00-8.931 3.65A12.367 12.367 0 000 12.967a12.2 12.2 0 002.546 7.467s.344.447.4.512l9.691 11.256 9.695-11.262c.05-.06.397-.506.397-.506v-.003a12.195 12.195 0 002.546-7.464 12.367 12.367 0 00-3.706-8.797A12.75 12.75 0 0012.637.52zm0 16.973a4.646 4.646 0 01-2.553-.763 4.542 4.542 0 01-1.692-2.031 4.463 4.463 0 01-.262-2.615 4.505 4.505 0 011.258-2.318 4.617 4.617 0 012.353-1.238 4.66 4.66 0 012.655.257 4.58 4.58 0 012.062 1.667c.505.744.775 1.62.775 2.515a4.498 4.498 0 01-1.348 3.198 4.637 4.637 0 01-3.248 1.328z" fill="#000"/><path d="M12.637.52a12.75 12.75 0 00-8.931 3.65A12.367 12.367 0 000 12.967a12.2 12.2 0 002.546 7.467s.344.447.4.512l9.691 11.256 9.695-11.262c.05-.06.397-.506.397-.506v-.003a12.195 12.195 0 002.546-7.464 12.367 12.367 0 00-3.706-8.797A12.75 12.75 0 0012.637.52zm0 16.973a4.646 4.646 0 01-2.553-.763 4.542 4.542 0 01-1.692-2.031 4.463 4.463 0 01-.262-2.615 4.505 4.505 0 011.258-2.318 4.617 4.617 0 012.353-1.238 4.66 4.66 0 012.655.257 4.58 4.58 0 012.062 1.667c.505.744.775 1.62.775 2.515a4.498 4.498 0 01-1.348 3.198 4.637 4.637 0 01-3.248 1.328z" fill="currentColor"/><path d="M12.637 17.493c2.538 0 4.596-2.027 4.596-4.526 0-2.5-2.058-4.526-4.596-4.526-2.538 0-4.595 2.026-4.595 4.526s2.057 4.526 4.595 4.526z" fill="#000"/><path d="M12.637 17.493c2.538 0 4.596-2.027 4.596-4.526 0-2.5-2.058-4.526-4.596-4.526-2.538 0-4.595 2.026-4.595 4.526s2.057 4.526 4.595 4.526z" fill="currentColor"/><path d="M17.265 12.978a4.628 4.628 0 11-9.255 0 4.628 4.628 0 019.255 0z" fill="#fff"/></svg><svg fill="none" viewBox="0 0 34 28" id="icon-tg" xmlns="http://www.w3.org/2000/svg"><path d="M13.341 18.454l-.562 7.817c.805 0 1.153-.341 1.571-.751l3.773-3.563 7.817 5.657c1.434.79 2.444.374 2.83-1.303L33.903 2.55l.001-.001c.455-2.095-.766-2.914-2.163-2.4L1.578 11.56c-2.058.79-2.027 1.924-.35 2.438l7.712 2.37L26.85 5.293c.843-.552 1.61-.247.979.305L13.34 18.454z" fill="currentColor"/></svg><svg fill="none" viewBox="0 0 30 25" id="icon-tg-gradient" xmlns="http://www.w3.org/2000/svg"><path d="M11.772 16.477l-.497 6.98c.71 0 1.018-.305 1.387-.672l3.329-3.18 6.897 5.05c1.265.705 2.157.334 2.498-1.163l4.527-21.215.002-.002c.401-1.87-.677-2.6-1.91-2.142L1.394 10.322c-1.817.705-1.789 1.717-.309 2.176l6.804 2.116 15.804-9.889c.744-.492 1.42-.22.864.273L11.772 16.477z" fill="#99958C"/></svg><svg fill="none" viewBox="0 0 32 32" id="icon-whatsapp" xmlns="http://www.w3.org/2000/svg"><path d="M16.004 0h-.008C7.174 0 0 7.176 0 16c0 3.5 1.128 6.744 3.046 9.378l-1.994 5.944 6.15-1.966A15.862 15.862 0 0016.004 32C24.826 32 32 24.822 32 16S24.826 0 16.004 0z" fill="currentColor"/><path d="M25.315 22.593c-.386 1.09-1.918 1.994-3.14 2.258-.836.178-1.928.32-5.604-1.204-4.702-1.948-7.73-6.726-7.966-7.036-.226-.31-1.9-2.53-1.9-4.826s1.166-3.414 1.636-3.894c.386-.394 1.024-.574 1.636-.574.198 0 .376.01.536.018.47.02.706.048 1.016.79.386.93 1.326 3.226 1.438 3.462.114.236.228.556.068.866-.15.32-.282.462-.518.734-.236.272-.46.48-.696.772-.216.254-.46.526-.188.996.272.46 1.212 1.994 2.596 3.226 1.786 1.59 3.234 2.098 3.752 2.314.386.16.846.122 1.128-.178.358-.386.8-1.026 1.25-1.656.32-.452.724-.508 1.148-.348.432.15 2.718 1.28 3.188 1.514.47.236.78.348.894.546.112.198.112 1.128-.274 2.22z" fill="#fff"/></svg><svg fill="none" viewBox="0 0 25 25" id="icon-whatsapp-gradient" xmlns="http://www.w3.org/2000/svg"><path d="M12.503 0h-.006C5.605 0 0 5.606 0 12.5c0 2.734.881 5.269 2.38 7.327L.822 24.47l4.805-1.536A12.392 12.392 0 0012.503 25C19.395 25 25 19.392 25 12.5S19.395 0 12.503 0z" fill="#99958C"/><path d="M19.777 17.651c-.301.852-1.498 1.558-2.453 1.764-.653.14-1.506.25-4.378-.94-3.673-1.522-6.039-5.255-6.223-5.497-.177-.242-1.485-1.977-1.485-3.77 0-1.794.911-2.668 1.278-3.043.302-.308.8-.448 1.279-.448.154 0 .293.008.418.014.367.015.552.037.794.617.302.727 1.036 2.52 1.123 2.705.09.184.179.434.054.676-.118.25-.22.361-.405.574-.184.212-.36.375-.544.603-.169.198-.36.41-.147.778.213.36.947 1.558 2.028 2.52 1.396 1.242 2.527 1.64 2.932 1.808.301.125.66.095.88-.139.28-.301.626-.801.977-1.294.25-.353.566-.397.897-.272.338.118 2.124 1 2.491 1.183.367.185.61.272.698.427.088.155.088.881-.214 1.734z" fill="#fff"/></svg></svg>